# xmcd CD database file
#
# Track frame offsets:
#	150
#	13549
#	27495
#	43469
#	57087
#	69877
#	82590
#	95905
#	109650
#	122911
#	137229
#	149785
#	163239
#	177207
#	189606
#	202892
#	217221
#	227884
#	241465
#	255470
#	268150
#	281888
#	295905
#	309492
#	323628
#
# Disc length: 4470 seconds
#
# Revision: 7
# Processed by: cddbd v1.5.2PL0 Copyright (c) Steve Scherf et al.
# Submitted via: CDex 1.51
#
DISCID=86117419
DTITLE=Various Artist - City Jazz - Vol. 05-10  { 1935-1937 }
DYEAR=2002
DGENRE=Jazz
TTITLE0=Clarence Williams - Lady Luck Blues  [1935)
TTITLE1=Louis Prima - Basin Street Blues  [1935)
TTITLE2=Benny Goodman - Blue Skies  [1935)
TTITLE3=Teddy Wilson - What A Little Moonlight Can Do  [1935)
TTITLE4=Paul Whiteman - Dark Town Strutter's Ball  [1935)
TTITLE5=Benny Goodman - After You've Gone  [1935)
TTITLE6=Django Reinhardt - Djangology  [1935)
TTITLE7=Duke Ellington - Echoes Of Harlem  [1936)
TTITLE8=Gene Krupa and His All Star Swing Band - Swing Is Here  [1936)
TTITLE9=Stuff Smith And His Onyx Club Boys - After You've Gone  [1936)
TTITLE10=Django Reinhardt - Limehouse Blues  [1936)
TTITLE11=Duke Ellington - In A Jam  [1936)
TTITLE12=Henry ''Red'' Allen - When Did You Leave Heaven ¿   [1936)
TTITLE13=Django Reinhardt - Sweet Chorus  [1936)
TTITLE14=Jones and Smith Inc. - Evenin'  [1936)
TTITLE15=Roy Elridge - Wabash Stomp  [1937)
TTITLE16=Lionel Hampton - Jivin' The Vibes  [1937)
TTITLE17=Meade Lux Lewis - Honky Tonk Train Blues  [1937)
TTITLE18=Lionel Hampton - Buzzin' Around With The Bee  [1937)
TTITLE19=Lionel Hampton - Chinatown  [1937)
TTITLE20=Coleman Hawkins - Crazy Rhythm  [1937)
TTITLE21=Teddy Hill and His NBC Orchestra - King Porter Stomp  [1937)
TTITLE22=Jam Session At Victor - Blues  [1937)
TTITLE23=Jam Session At Victor - Honeysuckle Rose  [1937)
TTITLE24=Robert Johnson - Hellhound On My Trail  [1937)
EXTD=YEAR: 2002
EXTT0=
EXTT1=
EXTT2=
EXTT3=
EXTT4=
EXTT5=
EXTT6=
EXTT7=
EXTT8=
EXTT9=
EXTT10=
EXTT11=
EXTT12=
EXTT13=
EXTT14=
EXTT15=
EXTT16=
EXTT17=
EXTT18=
EXTT19=
EXTT20=
EXTT21=
EXTT22=
EXTT23=
EXTT24=
PLAYORDER=
